<svg width="48" height="48" viewBox="0 0 48 48" fill="none" xmlns="http://www.w3.org/2000/svg">
<path d="M24 2.88C12.3471 2.88 2.88 12.3471 2.88 24C2.88 34.5784 10.6824 43.3328 20.8444 44.8594L21.9469 45.0262V28.3837H16.9575V25.005H21.9469V20.5181C21.9469 17.7552 22.6099 15.9354 23.7075 14.7937C24.8051 13.6521 26.4269 13.0762 28.6838 13.0762C30.4884 13.0762 31.1904 13.1856 31.8581 13.2675V16.0331H29.5088C28.1757 16.0331 27.082 16.7769 26.5144 17.7675C25.9467 18.7581 25.77 19.9409 25.77 21.1462V25.0031H31.6481L31.125 28.3819H25.77V45.0525L26.8594 44.9044C37.1658 43.5066 45.12 34.6818 45.12 24C45.12 12.3471 35.6529 2.88 24 2.88ZM24 4.8C34.6153 4.8 43.2 13.3847 43.2 24C43.2 33.3406 36.5144 41.0225 27.69 42.7519V30.3019H32.7713L33.8869 23.0831H27.69V21.1462C27.69 20.1503 27.8722 19.2579 28.1794 18.7219C28.4865 18.1859 28.7826 17.9531 29.5088 17.9531H33.7781V11.5294L32.9456 11.4169C32.3698 11.339 31.0552 11.1562 28.6838 11.1562C26.0888 11.1562 23.8614 11.8631 22.3238 13.4625C20.7862 15.0618 20.0269 17.4433 20.0269 20.5181V23.085H15.0375V30.3037H20.0269V42.6919C11.3443 40.8526 4.8 33.2395 4.8 24C4.8 13.3847 13.3847 4.8 24 4.8Z" fill="white"/>
</svg>
