<svg width="40" height="40" viewBox="0 0 40 40" fill="none" xmlns="http://www.w3.org/2000/svg">
<g clip-path="url(#clip0_27_28)">
<path d="M7.5 25C7.27899 25 7.06702 24.9122 6.91074 24.7559C6.75446 24.5996 6.66667 24.3877 6.66667 24.1667V14.1667C6.66667 13.9457 6.75446 13.7337 6.91074 13.5774C7.06702 13.4211 7.27899 13.3333 7.5 13.3333C7.72101 13.3333 7.93298 13.4211 8.08926 13.5774C8.24554 13.7337 8.33333 13.9457 8.33333 14.1667V24.1667C8.33333 24.3877 8.24554 24.5996 8.08926 24.7559C7.93298 24.9122 7.72101 25 7.5 25ZM29.1667 25C28.9457 25 28.7337 24.9122 28.5774 24.7559C28.4211 24.5996 28.3333 24.3877 28.3333 24.1667V14.1667C28.3333 13.9457 28.4211 13.7337 28.5774 13.5774C28.7337 13.4211 28.9457 13.3333 29.1667 13.3333C29.3877 13.3333 29.5996 13.4211 29.7559 13.5774C29.9122 13.7337 30 13.9457 30 14.1667V24.1667C30 24.3877 29.9122 24.5996 29.7559 24.7559C29.5996 24.9122 29.3877 25 29.1667 25ZM22.5 25H20.8333C20.6123 25 20.4004 24.9122 20.2441 24.7559C20.0878 24.5996 20 24.3877 20 24.1667V14.1667C20 13.9457 20.0878 13.7337 20.2441 13.5774C20.4004 13.4211 20.6123 13.3333 20.8333 13.3333H22.5C24.7967 13.3333 26.6667 15.2033 26.6667 17.5V20.8333C26.6667 23.13 24.7967 25 22.5 25ZM21.6667 23.3333H22.5C23.8783 23.3333 25 22.2117 25 20.8333V17.5C25 16.1217 23.8783 15 22.5 15H21.6667V23.3333ZM14.2117 25C14.0373 24.9999 13.8674 24.9451 13.7257 24.8435C13.584 24.7419 13.4777 24.5984 13.4217 24.4333L11.6667 19.2367V24.1667C11.6667 24.3877 11.5789 24.5996 11.4226 24.7559C11.2663 24.9122 11.0543 25 10.8333 25C10.6123 25 10.4004 24.9122 10.2441 24.7559C10.0878 24.5996 10 24.3877 10 24.1667V14.1667C10 13.7583 10.295 13.41 10.6983 13.345C11.1 13.2683 11.4917 13.5117 11.6233 13.9L14.2017 21.5317L16.7083 13.9067C16.7702 13.7184 16.8971 13.5584 17.0664 13.4553C17.2356 13.3521 17.436 13.3127 17.6317 13.344C17.8273 13.3753 18.0054 13.4753 18.134 13.6261C18.2626 13.7769 18.3333 13.9685 18.3333 14.1667V24.1667C18.3333 24.3877 18.2455 24.5996 18.0893 24.7559C17.933 24.9122 17.721 25 17.5 25C17.279 25 17.067 24.9122 16.9107 24.7559C16.7545 24.5996 16.6667 24.3877 16.6667 24.1667V19.3683L15.0033 24.4267C14.9487 24.5929 14.8432 24.7377 14.7017 24.8406C14.5602 24.9435 14.39 24.9993 14.215 25H14.2117Z" fill="white"/>
<path d="M31.25 25C29.6417 25 28.3333 23.6917 28.3333 22.0833V19.5833C28.3333 17.975 29.6417 16.6667 31.25 16.6667C32.8583 16.6667 34.1667 17.975 34.1667 19.5833V22.0833C34.1667 23.6917 32.8583 25 31.25 25ZM31.25 18.3333C30.9185 18.3333 30.6005 18.465 30.3661 18.6994C30.1317 18.9339 30 19.2518 30 19.5833V22.0833C30 22.4149 30.1317 22.7328 30.3661 22.9672C30.6005 23.2016 30.9185 23.3333 31.25 23.3333C31.5815 23.3333 31.8995 23.2016 32.1339 22.9672C32.3683 22.7328 32.5 22.4149 32.5 22.0833V19.5833C32.5 19.2518 32.3683 18.9339 32.1339 18.6994C31.8995 18.465 31.5815 18.3333 31.25 18.3333Z" fill="white"/>
<path d="M37.5 40H2.5C1.12167 40 0 38.8783 0 37.5V2.5C0 1.12167 1.12167 0 2.5 0H37.5C38.8783 0 40 1.12167 40 2.5V37.5C40 38.8783 38.8783 40 37.5 40ZM2.5 1.66667C2.27899 1.66667 2.06702 1.75446 1.91074 1.91074C1.75446 2.06702 1.66667 2.27899 1.66667 2.5V37.5C1.66667 37.721 1.75446 37.933 1.91074 38.0893C2.06702 38.2455 2.27899 38.3333 2.5 38.3333H37.5C37.721 38.3333 37.933 38.2455 38.0893 38.0893C38.2455 37.933 38.3333 37.721 38.3333 37.5V2.5C38.3333 2.27899 38.2455 2.06702 38.0893 1.91074C37.933 1.75446 37.721 1.66667 37.5 1.66667H2.5Z" fill="white"/>
</g>
<defs>
<clipPath id="clip0_27_28">
<rect width="40" height="40" fill="white"/>
</clipPath>
</defs>
</svg>
