<svg width="48" height="48" viewBox="0 0 48 48" fill="none" xmlns="http://www.w3.org/2000/svg">
<path d="M15.36 2.88C8.47919 2.88 2.88 8.47919 2.88 15.36V32.64C2.88 39.5208 8.47919 45.12 15.36 45.12H32.64C39.5208 45.12 45.12 39.5208 45.12 32.64V15.36C45.12 8.47919 39.5208 2.88 32.64 2.88H15.36ZM15.36 4.8H32.64C38.483 4.8 43.2 9.51698 43.2 15.36V32.64C43.2 38.483 38.483 43.2 32.64 43.2H15.36C9.51698 43.2 4.8 38.483 4.8 32.64V15.36C4.8 9.51698 9.51698 4.8 15.36 4.8ZM35.52 10.56C35.0108 10.56 34.5224 10.7623 34.1624 11.1224C33.8023 11.4824 33.6 11.9708 33.6 12.48C33.6 12.9892 33.8023 13.4776 34.1624 13.8376C34.5224 14.1977 35.0108 14.4 35.52 14.4C36.0292 14.4 36.5176 14.1977 36.8777 13.8376C37.2377 13.4776 37.44 12.9892 37.44 12.48C37.44 11.9708 37.2377 11.4824 36.8777 11.1224C36.5176 10.7623 36.0292 10.56 35.52 10.56ZM24 13.44C18.1792 13.44 13.44 18.1792 13.44 24C13.44 29.8208 18.1792 34.56 24 34.56C29.8208 34.56 34.56 29.8208 34.56 24C34.56 18.1792 29.8208 13.44 24 13.44ZM24 15.36C28.7831 15.36 32.64 19.2169 32.64 24C32.64 28.7831 28.7831 32.64 24 32.64C19.2169 32.64 15.36 28.7831 15.36 24C15.36 19.2169 19.2169 15.36 24 15.36Z" fill="white"/>
</svg>
