<svg width="48" height="48" viewBox="0 0 48 48" fill="none" xmlns="http://www.w3.org/2000/svg">
<path d="M10.56 3.84C6.85984 3.84 3.84 6.85984 3.84 10.56V37.44C3.84 41.1402 6.85984 44.16 10.56 44.16H37.44C41.1402 44.16 44.16 41.1402 44.16 37.44V10.56C44.16 6.85984 41.1402 3.84 37.44 3.84H10.56ZM10.56 5.76H37.44C40.1027 5.76 42.24 7.89728 42.24 10.56V37.44C42.24 40.1027 40.1027 42.24 37.44 42.24H10.56C7.89728 42.24 5.76 40.1027 5.76 37.44V10.56C5.76 7.89728 7.89728 5.76 10.56 5.76ZM12.5625 12.48L21.4162 25.0594L12.48 35.52H14.88L22.5 26.5987L28.7775 35.52H36.3975L26.6775 21.7087L34.56 12.48H32.16L25.5937 20.1694L20.1825 12.48H12.5625ZM16.2375 14.4H19.1794L32.7225 33.6H29.7806L16.2375 14.4Z" fill="white"/>
</svg>
