<svg width="48" height="48" viewBox="0 0 48 48" fill="none" xmlns="http://www.w3.org/2000/svg">
<path fill-rule="evenodd" clip-rule="evenodd" d="M12.48 4.8L15.36 13.44V19.2H17.28V13.44L20.16 4.8H18.24L16.32 10.56L14.4 4.8H12.48ZM23.04 8.64C22.0162 8.64 21.5137 8.80125 20.8875 9.315C20.2875 9.82125 20.1225 10.2113 20.16 11.52V16.32C20.16 17.2763 20.3175 17.9063 20.895 18.465C21.495 19.0238 22.0612 19.2 23.04 19.2C24.0637 19.2 24.6225 19.0238 25.2 18.465C25.8 17.9288 25.92 17.2763 25.92 16.32V11.52C25.92 10.6725 25.77 9.87 25.1887 9.33375C24.5887 8.7825 23.97 8.64 23.04 8.64ZM27.84 8.64V17.28C27.84 18.2138 28.7812 19.2 29.76 19.2C30.7387 19.2 31.2562 18.7088 31.68 18.24V19.2H33.6V8.64H31.68V16.32C31.6687 16.9763 30.8962 17.28 30.72 17.28C30.5212 17.28 29.76 17.2388 29.76 16.32V8.64H27.84ZM23.04 10.56C23.3287 10.56 24 10.5563 24 11.52V16.32C24 17.25 23.3512 17.28 23.04 17.28C22.7512 17.28 22.08 17.2688 22.08 16.32V11.52C22.08 10.7363 22.4962 10.56 23.04 10.56ZM9.6 21.12C6.15 21.12 3.84 23.4075 3.84 26.88V36C3.84 39.4725 6.15 42.24 9.6 42.24H38.4C41.85 42.24 44.16 39.9525 44.16 36.48V26.88C44.16 23.4075 41.85 21.12 38.4 21.12H9.6ZM11.52 24.96H17.28V26.88H15.36V38.4H13.44V26.88H11.52V24.96ZM24.96 24.96H26.88V28.8C27.1012 28.455 27.4312 28.1813 27.7462 28.0275C28.0537 27.87 28.365 27.78 28.68 27.78C29.3025 27.78 29.79 28.005 30.1237 28.425C30.4575 28.8488 30.72 29.4113 30.72 30.24V36C30.72 36.7125 30.48 37.155 30.165 37.5338C29.8575 37.9125 29.3962 38.3925 28.8 38.4C27.7912 38.4113 27.2512 37.8713 26.88 37.44V38.4H24.96V24.96ZM17.28 27.84H19.2V35.52C19.2 35.7413 19.4587 36.4875 20.16 36.48C20.94 36.4725 20.9475 35.745 21.12 35.52V27.84H23.04V38.4H21.12V37.44C20.7637 37.86 20.58 37.9913 20.1787 38.19C19.7812 38.415 19.3762 38.4 19.0012 38.4C18.5362 38.4 18.0075 37.98 17.76 37.665C17.5387 37.3763 17.28 37.08 17.28 36.48V27.84ZM34.7512 27.84C35.6625 27.84 36.3037 28.035 36.7875 28.545C37.2825 29.055 37.44 29.6513 37.44 30.6113V33.6H33.6V35.085C33.6 35.6213 33.6712 35.9625 33.81 36.165C33.9412 36.3863 34.2075 36.4838 34.56 36.48C34.95 36.4763 35.1975 36.3975 35.3287 36.2213C35.4637 36.0638 35.52 35.6175 35.52 35.04V34.56H37.44V35.13C37.44 36.1763 37.3575 36.9563 36.84 37.4663C36.3525 38.0025 35.5912 38.25 34.5937 38.25C33.6825 38.25 32.97 37.98 32.46 37.425C31.95 36.87 31.6837 36.1088 31.6837 35.13V30.6113C31.6837 29.7413 31.9875 29.0963 32.5462 28.5225C32.9962 28.0613 33.84 27.84 34.7512 27.84ZM27.84 29.28C27.3112 29.28 26.8875 29.7563 26.88 30.24V36C26.8875 36.2775 27.3112 36.48 27.84 36.48C28.3687 36.48 28.8 36.0713 28.8 35.5425V30.72C28.8 29.76 28.3687 29.28 27.84 29.28ZM34.56 29.76C34.0312 29.76 33.6075 30.2063 33.6 30.72V31.68H35.52V30.72C35.52 30.1313 35.0887 29.76 34.56 29.76Z" fill="white"/>
</svg>
