<svg width="264" height="80" viewBox="0 0 264 80" fill="none" xmlns="http://www.w3.org/2000/svg">
<g clip-path="url(#clip0_5_2)">
<path d="M25.4132 18.1538C21.8804 18.2336 18.8605 20.547 16.3533 25.0826C13.7208 30.188 12.4217 35.8632 12.4445 42.1082C12.4901 42.8604 12.5698 42.9287 12.6952 42.3247C13.755 37.7321 14.8604 34.1424 16.0114 31.5441C17.1397 28.9344 18.3932 26.792 19.7607 25.1396C22.906 21.4814 25.6297 20.8888 27.9431 23.3618C30.473 26.2792 31.8177 31.2022 31.9773 38.1082C31.8405 47.396 30.6212 54.4159 28.3192 59.1908C25.436 65.0028 22.473 66.9401 19.4644 64.98C15.3619 61.7093 13.0827 54.4615 12.6268 43.2592C12.4673 42.8717 12.3191 43.1566 12.2052 44.1139C11.9886 45.2763 11.8405 46.5527 11.7493 47.9088C11.4074 53.9943 12.2166 59.1566 14.1653 63.396C16.1596 67.4187 18.8149 69.4586 22.1311 69.527C25.7095 69.47 28.9687 67.1339 31.9203 62.4957C34.8605 57.6524 36.7522 51.7492 37.5841 44.7635C37.8918 37.3333 36.889 31.0085 34.587 25.7891C32.2622 20.8205 29.2195 18.2678 25.4702 18.131" fill="#FFB400"/>
<path d="M51.6239 15.396C49.7892 12.3875 46.2792 10.9174 41.094 11.0085C35.3618 11.282 29.7892 12.9915 24.3875 16.1368C23.7607 16.547 23.7379 16.661 24.3191 16.4672C28.8319 15.0883 32.49 14.245 35.3049 13.9487C38.1311 13.6182 40.604 13.6296 42.7237 13.9943C47.4644 14.8946 49.3447 16.9573 48.3533 20.1937C47.0883 23.8405 43.4986 27.4644 37.5955 31.0656C29.4815 35.5898 22.792 38.0513 17.5157 38.4388C11.0313 38.8491 7.88604 37.2536 8.07977 33.6639C8.88889 28.4673 14.0171 22.8718 23.4872 16.8661C23.7379 16.5356 23.4188 16.5584 22.5413 16.9345C21.4245 17.3333 20.2507 17.8348 19.0199 18.4388C13.584 21.1852 9.50428 24.4673 6.81482 28.2735C4.33048 32.0114 3.88604 35.3391 5.48148 38.2337C7.31624 41.2992 10.9744 42.9516 16.4672 43.1909C22.1311 43.3163 28.1937 42.0058 34.6553 39.2251C41.2422 35.7721 46.2222 31.7493 49.5841 27.1453C52.7294 22.6439 53.4131 18.7351 51.6581 15.4188" fill="#FFB400"/>
<path d="M67.1226 36.7179C68.8092 33.6182 68.3306 29.8461 65.6525 25.4017C62.5414 20.5698 58.2793 16.604 52.8548 13.5043C52.1824 13.1624 52.0799 13.1966 52.5357 13.6068C55.9887 16.8205 58.5414 19.5783 60.2166 21.8575C61.9146 24.1481 63.1454 26.2905 63.8861 28.3076C65.4816 32.866 64.6269 35.5213 61.3334 36.2734C57.5386 37.0028 52.6155 35.7036 46.5414 32.3988C38.5756 27.6353 33.0941 23.0655 30.1083 18.7008C26.5186 13.2877 26.3249 9.76637 29.5271 8.13674C34.416 6.22222 41.8234 7.87464 51.7608 13.0826C52.171 13.1282 52.0001 12.8661 51.2252 12.2963C50.3249 11.5214 49.2992 10.7578 48.1596 9.99429C43.0656 6.65526 38.1881 4.77493 33.5385 4.34188C29.0599 4.05698 25.9602 5.33333 24.2394 8.17093C22.4958 11.2934 22.8946 15.2934 25.436 20.1595C28.1596 25.1282 32.3306 29.7207 37.9602 33.9259C44.2394 37.9031 50.2223 40.2051 55.8861 40.809C61.3562 41.2763 65.0941 39.9202 67.077 36.7407" fill="#FFB400"/>
<path d="M56.4102 60.7977C59.943 60.7179 62.963 58.4045 65.4701 53.8689C68.1026 48.7635 69.4017 43.0883 69.3789 36.8433C69.3333 36.0912 69.2536 36.0228 69.1282 36.6268C68.0684 41.2194 66.963 44.8091 65.812 47.4074C64.6838 50.0171 63.4302 52.1595 62.0627 53.812C58.9174 57.4701 56.1937 58.0627 53.8803 55.5897C51.3504 52.6723 50.0057 47.7493 49.8461 40.8433C49.9829 31.5555 51.2022 24.5356 53.5042 19.7607C56.3874 13.9487 59.3504 12.0114 62.359 13.9715C66.4615 17.2422 68.7408 24.49 69.1966 35.6923C69.3561 36.0798 69.5043 35.7949 69.6182 34.8376C69.8348 33.6752 69.9829 32.3988 70.0741 31.0427C70.416 24.9573 69.6069 19.7949 67.6581 15.5555C65.6638 11.5328 63.0085 9.49287 59.6923 9.42449C56.1139 9.48147 52.8547 11.8177 49.9031 16.4558C46.9629 21.2991 45.0712 27.2023 44.2393 34.188C43.9316 41.6182 44.9344 47.943 47.2364 53.1624C49.5612 58.131 52.604 60.6837 56.3533 60.8205" fill="#FFB400"/>
<path d="M14.7009 42.2337C13.0143 45.3334 13.4929 49.1054 16.171 53.5499C19.2821 58.3818 23.5442 62.3476 28.9687 65.4473C29.6411 65.7892 29.7436 65.755 29.2878 65.3447C25.8348 62.1311 23.2821 59.3732 21.6069 57.094C19.9089 54.8034 18.6781 52.661 17.9373 50.6439C16.3419 46.0855 17.1966 43.4302 20.4901 42.6781C24.2849 41.9488 29.208 43.2479 35.2821 46.5527C43.2479 51.3163 48.7294 55.8861 51.7152 60.2507C55.3049 65.6638 55.4986 69.1852 52.2964 70.8148C47.4075 72.7293 40 71.0769 30.0627 65.8689C29.6525 65.8234 29.8234 66.0855 30.5983 66.6553C31.4986 67.4302 32.5243 68.1937 33.6639 68.9572C38.7579 72.2963 43.6354 74.1766 48.285 74.6097C52.7636 74.8946 55.8633 73.6182 57.5841 70.7806C59.3277 67.6581 58.9288 63.6581 56.3875 58.792C53.6639 53.8234 49.4929 49.2308 43.8633 45.0257C37.5841 41.0485 31.6012 38.7465 25.9374 38.1425C20.4673 37.6753 16.7294 39.0314 14.7465 42.2109" fill="#FFB400"/>
<path d="M30.1994 63.5554C32.0342 66.564 35.5441 68.034 40.7293 67.9429C46.4615 67.6694 52.0342 65.96 57.4359 62.8147C58.0627 62.4044 58.0855 62.2905 57.5043 62.4842C52.9915 63.8631 49.3333 64.7064 46.5185 65.0027C43.6923 65.3332 41.2194 65.3218 39.0997 64.9571C34.3589 64.0568 32.4786 61.9942 33.4701 58.7577C34.735 55.111 38.3248 51.4871 44.2279 47.886C52.3419 43.3618 59.0314 40.9002 64.3077 40.5128C70.7921 40.1025 73.9374 41.6979 73.7436 45.2877C72.9573 50.4728 67.8291 56.0683 58.3476 62.074C58.0969 62.4044 58.416 62.3816 59.2935 62.0056C60.4103 61.6067 61.5841 61.1053 62.8148 60.5013C68.2507 57.7549 72.3305 54.4728 75.02 50.6666C77.5043 46.9287 77.9488 43.6011 76.3533 40.7065C74.5186 37.641 70.8604 35.9886 65.3789 35.7492C59.7151 35.6239 53.6524 36.9344 47.1909 39.715C40.604 43.168 35.6239 47.1908 32.2621 51.7948C29.1168 56.2962 28.433 60.205 30.188 63.5212" fill="#FFB400"/>
<path d="M118.97 55.7356H111.609L99.9284 39.3388L94.9036 44.0992V55.7356H89.0413V24.3526H94.9036V36.1212L107.421 24.3526H115.884L104.38 35.2397L118.97 55.7356ZM133.295 56.0001C132.281 56.0001 131.223 55.8678 130.121 55.6474C126.859 54.9863 123.686 53.3995 120.909 50.9752L120.072 50.2259L123.95 45.8182L124.788 46.5675C126.815 48.3306 129.063 49.5207 131.267 49.9615H131.311C131.972 50.0937 132.634 50.1819 133.295 50.1819C134.397 50.1819 135.41 49.9615 136.248 49.5648C137.306 49.124 138.54 48.1543 138.54 46.3471C138.54 45.3774 138.055 44.6281 137.041 44.011C135.807 43.2617 134.132 42.865 132.942 42.6446C132.413 42.5565 127.917 41.6309 125.846 40.4849C124.479 39.6474 123.421 38.5895 122.672 37.3554C121.923 36.0771 121.57 34.6667 121.57 33.1239C121.57 31.449 122.099 29.7741 123.113 28.2314C124.083 26.9531 125.405 25.8953 126.992 25.146C128.578 24.3966 130.342 24 132.237 24C132.986 24 133.78 24.0881 134.573 24.1763C137.482 24.7052 140.347 26.0275 142.859 28.1432L143.697 28.8485L139.95 33.3884L139.113 32.6832C136.248 30.3471 133.78 29.8182 132.193 29.8182C131.179 29.8182 130.253 30.0385 129.46 30.3912C128.226 30.9642 127.432 32.022 127.432 33.0799C127.432 34.0496 127.785 34.6667 128.623 35.2397C129.46 35.8127 130.738 36.2534 132.766 36.6942C133.03 36.7383 133.383 36.8264 133.735 36.9146C135.587 37.2672 138.055 37.7961 139.774 38.8099C141.273 39.6033 142.419 40.7052 143.212 41.9835C144.005 43.2617 144.402 44.7603 144.402 46.3471C144.402 48.3306 143.873 50.0937 142.815 51.5923C141.89 52.8706 140.523 53.9725 138.716 54.854C137.173 55.6474 135.454 56.0001 133.295 56.0001ZM187.994 55.7356H182.132V34.7548L173.934 45.9504L165.779 34.7548V55.7356H159.917V24.3526H165.427L173.934 36.0331L182.441 24.3526H187.994V55.7356Z" fill="#F6F6F6"/>
<path d="M205.193 16.0003C202.518 16.0003 199.874 16.4506 197.329 17.3354C197.151 17.3982 197.036 17.5657 197.036 17.749C197.036 17.9375 197.156 18.105 197.329 18.1626C206.601 21.3982 212.832 30.173 212.832 40.0003C212.832 49.8275 206.601 58.6023 197.329 61.8379C197.151 61.9007 197.036 62.0683 197.036 62.2515C197.036 62.44 197.156 62.6075 197.329 62.6651C199.874 63.5499 202.518 64.0002 205.193 64.0002C205.209 64.0002 205.224 64.0002 205.24 64.0002C218.476 64.0002 229.24 53.2358 229.24 40.0003C229.24 26.7647 218.476 16.0003 205.24 16.0003C205.224 16.0003 205.209 16.0003 205.193 16.0003ZM198.811 17.7856C200.889 17.1835 203.031 16.8799 205.193 16.8799C205.209 16.8799 205.224 16.8799 205.24 16.8799C217.989 16.8799 228.36 27.2516 228.36 40.0003C228.36 52.7489 217.989 63.1206 205.24 63.1206C205.224 63.1206 205.209 63.1206 205.193 63.1206C203.031 63.1206 200.889 62.817 198.811 62.2149C207.774 58.5447 213.711 49.7751 213.711 40.0003C213.711 30.2254 207.774 21.4558 198.811 17.7856Z" fill="#FFB400"/>
<path d="M252.304 56H238.281V23.9999H250.147C252.304 23.9999 254.416 24.8988 255.899 26.4269C257.427 27.9101 258.326 30.0224 258.326 32.1797C258.326 33.4831 258.012 34.6966 257.517 35.7753C258.371 36.2696 259.18 36.8539 259.854 37.573C261.922 39.5955 263.045 42.2921 263.045 45.1686C263.045 48.045 261.922 50.7416 259.854 52.809C258.866 53.7978 257.697 54.6068 256.394 55.1461C255.09 55.7304 253.697 56 252.304 56ZM244.259 50.1124H252.259C254.911 50.0225 257.068 47.8202 257.068 45.1686C257.068 42.5618 254.911 40.3595 252.304 40.3146H244.259V50.1124ZM244.259 34.4269H250.102C251.36 34.4269 252.349 33.3932 252.349 32.1797C252.349 30.9663 251.36 29.9775 250.102 29.8876H244.259V34.4269Z" fill="#F6F6F6"/>
</g>
<defs>
<clipPath id="clip0_5_2">
<rect width="263.045" height="80" fill="white"/>
</clipPath>
</defs>
</svg>
